<?xml version="1.0" standalone="no"?><!DOCTYPE svg PUBLIC "-//W3C//DTD SVG 1.1//EN" "http://www.w3.org/Graphics/SVG/1.1/DTD/svg11.dtd"><svg t="1635411523391" class="icon" viewBox="0 0 1024 1024" version="1.1" xmlns="http://www.w3.org/2000/svg" p-id="798" xmlns:xlink="http://www.w3.org/1999/xlink" width="64" height="64"><defs><style type="text/css"></style></defs><path d="M333.77978362 245.49712693a50.92006157 50.92006157 0 0 1 26.19837177 7.2561088L719.28284164 468.33604723a50.92006157 50.92006157 0 0 1 0 87.32790554L359.97815539 771.24676427A50.92006157 50.92006157 0 0 1 282.85972205 727.58281152V296.41718848a50.92006157 50.92006157 0 0 1 50.92006157-50.92006155z m0 38.19004632a12.73001524 12.73001524 0 0 0-12.64090534 11.24060343L321.04976838 296.41718848v431.16562303a12.73001524 12.73001524 0 0 0 17.96205158 11.60977408l1.31119198-0.68742084L699.64042742 522.90962343a12.73001524 12.73001524 0 0 0 1.22208148-20.99179566l-1.22208148-0.8274512L340.32301194 285.49483524A12.73001524 12.73001524 0 0 0 333.77978362 283.68717325z"  p-id="799"></path></svg>