<?xml version="1.0" standalone="no"?><!DOCTYPE svg PUBLIC "-//W3C//DTD SVG 1.1//EN" "http://www.w3.org/Graphics/SVG/1.1/DTD/svg11.dtd"><svg t="1635411225718" class="icon" viewBox="0 0 1024 1024" version="1.1" xmlns="http://www.w3.org/2000/svg" p-id="944" xmlns:xlink="http://www.w3.org/1999/xlink" width="64" height="64"><defs><style type="text/css"></style></defs><path d="M282.18078768 294.74107a5.43147305 5.43147305 0 0 1 3.84276775 1.58870594l450.81227976 450.81227974a5.43147305 5.43147305 0 0 1-3.84276712 9.26066233h-42.22970477a5.43147305 5.43147305 0 0 1-3.84276712-1.58870593l-120.61944232-120.61944231 0.01357848 59.5832612a54.31473234 54.31473234 0 0 1-82.25966224 46.57488358l-108.99608976-65.42209536L308.31975294 674.94419766a54.31473234 54.31473234 0 0 1-54.31473235-54.31473235V403.37053469a54.31473234 54.31473234 0 0 1 31.96421968-49.52145698l-49.84734538-49.83376754A5.43147305 5.43147305 0 0 1 239.96466202 294.74107h42.22970477zM321.89843586 389.79185176H308.31975294a13.57868292 13.57868292 0 0 0-13.48363237 11.989977L294.74107 403.37053469v217.25893062a13.57868292 13.57868292 0 0 0 11.98997701 13.48363236L308.31975294 634.20814824h78.02311309l118.67769105 71.20661438a13.57868292 13.57868292 0 0 0 20.46307528-10.04822573l0.09505056-1.58870593-0.01357847-100.3193106-203.68024706-203.68024707z m391.25617615-69.31917763l0.02715757 0.05431515a460.0457845 460.0457845 0 0 1 44.33440024 197.5969966 460.58893224 460.58893224 0 0 1-30.36193529 165.00815771l-31.86916975-31.86916912a420.50465963 420.50465963 0 0 0 21.49505561-133.13898859 419.44552234 419.44552234 0 0 0-40.28795285-179.87681511 5.43147305 5.43147305 0 0 1 2.52563506-7.19670226l9.09771749-4.44022939 10.31979961-5.01053407 7.45469703-3.63908689a5.43147305 5.43147305 0 0 1 7.26459527 2.51205597z m-73.27057443 35.67120082l0.02715758 0.05431452a378.85883802 378.85883802 0 0 1 36.11929735 161.92579641c0 34.77500773-4.6574881 68.46372059-13.40216025 100.46867696L628.77667519 584.72742668a341.09652022 341.09652022 0 0 0 6.51776792-66.6034408 338.32646886 338.32646886 0 0 0-32.10000695-144.21919339 5.43147305 5.43147305 0 0 1 2.53921354-7.19670227c1.95533037-0.95050762 3.53045783-1.72449255 4.77969625-2.30837573l17.40787221-8.48667737 4.69822416-2.28121877a5.43147305 5.43147305 0 0 1 7.26459526 2.5120566zM558.57488295 300.96010647a54.31473234 54.31473234 0 0 1 7.73984939 27.94492989l-0.01357848 193.36044808-40.73604941-40.70889182L525.57868292 328.90503636a13.57868292 13.57868292 0 0 0-1.08629422-5.35000095l-0.85545704-1.62944198a13.57868292 13.57868292 0 0 0-17.21777042-5.40431609l-1.41218326 0.746828-89.83656744 53.88021426-29.69658001-29.68300092 98.58123958-59.13516527a54.31473234 54.31473234 0 0 1 74.51981284 18.62995306z" p-id="945"></path></svg>