<?xml version="1.0" standalone="no"?><!DOCTYPE svg PUBLIC "-//W3C//DTD SVG 1.1//EN" "http://www.w3.org/Graphics/SVG/1.1/DTD/svg11.dtd"><svg t="1635411229777" class="icon" viewBox="0 0 1024 1024" version="1.1" xmlns="http://www.w3.org/2000/svg" p-id="1090" xmlns:xlink="http://www.w3.org/1999/xlink" width="64" height="64"><defs><style type="text/css"></style></defs><path d="M558.57488295 300.96010647a54.31473234 54.31473234 0 0 1 7.73984939 27.94492989v364.85921613a54.31473234 54.31473234 0 0 1-82.25966223 46.57488294L375.05898034 674.94419766 308.31975294 674.94419766a54.31473234 54.31473234 0 0 1-54.31473235-54.31473235V403.37053469a54.31473234 54.31473234 0 0 1 54.31473235-54.31473235h64.52590226l111.20941491-66.72564893a54.31473234 54.31473234 0 0 1 74.51981284 18.62995306z m154.57972905 19.51256766l0.02715758 0.05431515a460.0457845 460.0457845 0 0 1 44.33440024 197.5969966 460.0457845 460.0457845 0 0 1-44.33440024 197.61057571 5.43147305 5.43147305 0 0 1-7.29175284 2.55279264 19768162.11411708 19768162.11411708 0 0 1-17.70660302-8.6088849l-9.16561112-4.48096543a5.43147305 5.43147305 0 0 1-2.53921354-7.19670228 419.49983686 419.49983686 0 0 0 40.30153133-179.87681574 419.44552234 419.44552234 0 0 0-40.28795285-179.8768151 5.43147305 5.43147305 0 0 1 2.52563506-7.19670227l9.09771749-4.44022938 10.31979961-5.01053408 7.45469704-3.63908688a5.43147305 5.43147305 0 0 1 7.26459527 2.51205596z m-206.73545076-3.93781769l-1.41218326 0.7332489-120.87743709 72.51016795L308.31975294 389.79185175a13.57868292 13.57868292 0 0 0-13.48363237 11.98997701L294.74107001 403.37053469v217.25893062a13.57868292 13.57868292 0 0 0 11.989977 13.48363236L308.31975294 634.20814825h78.02311309l118.67769105 71.20661437a13.57868292 13.57868292 0 0 0 20.46307528-10.04822573l0.09505056-1.58870592v-364.8592155a13.57868292 13.57868292 0 0 0-1.08629422-5.36358005l-0.85545704-1.62944199a13.57868292 13.57868292 0 0 0-17.21777042-5.40431609z m133.46487634 39.60901851l0.02715758 0.05431452a378.85883802 378.85883802 0 0 1 36.11929735 161.92579641c0 53.56790498-11.06662697 104.54228126-31.05444876 150.76411889-1.18134543 2.71573684-2.86510193 6.4362958-5.07842706 11.13452058a5.43147305 5.43147305 0 0 1-7.29175285 2.57994959l-9.47792105-4.61675206-10.55063678-5.13274221-6.84365631-3.32677759a5.43147305 5.43147305 0 0 1-2.53921354-7.18312317c2.21332514-4.75253931 3.91066074-8.50025585 5.07842709-11.25672874a338.38078401 338.38078401 0 0 0 27.02157986-132.96246529 338.32646886 338.32646886 0 0 0-32.10000695-144.21919339 5.43147305 5.43147305 0 0 1 2.53921354-7.19670227c1.95533037-0.95050762 3.53045783-1.72449255 4.77969625-2.30837572l17.4078722-8.48667738 4.69822416-2.28121877a5.43147305 5.43147305 0 0 1 7.26459527 2.5120566z" p-id="1091"></path></svg>